<?xml version="1.0" standalone="no"?>
<!DOCTYPE svg PUBLIC "-//W3C//DTD SVG 20010904//EN"
 "http://www.w3.org/TR/2001/REC-SVG-20010904/DTD/svg10.dtd">
<svg version="1.0" xmlns="http://www.w3.org/2000/svg"
 width="4290.000000pt" height="1813.000000pt" viewBox="0 0 4290.000000 1813.000000"
 preserveAspectRatio="xMidYMid meet">

<g transform="translate(0.000000,1813.000000) scale(0.100000,-0.100000)"
fill="#000000" stroke="none">
<path d="M16300 16069 c-1260 -90 -2415 -483 -3445 -1171 -959 -642 -1732
-1500 -2288 -2543 -79 -148 -267 -542 -267 -560 0 -3 73 -5 163 -5 l163 0 74
157 c570 1202 1471 2197 2608 2880 655 394 1385 675 2142 827 444 88 832 126
1313 126 307 0 474 -9 762 -41 1168 -130 2329 -593 3272 -1305 666 -503 1223
-1106 1657 -1795 l89 -141 -62 -116 c-69 -129 -191 -380 -236 -484 -16 -38
-32 -68 -35 -68 -3 0 -27 44 -55 97 -27 54 -94 172 -149 263 -752 1261 -1925
2202 -3321 2666 -440 146 -882 238 -1375 286 -213 21 -931 18 -1140 -5 -789
-85 -1471 -282 -2140 -616 -1132 -566 -2062 -1477 -2650 -2595 l-72 -136 170
0 170 0 61 111 c496 895 1260 1673 2151 2189 172 99 534 276 716 349 776 311
1581 451 2410 420 2125 -80 4026 -1309 4975 -3216 l100 -201 -60 -184 c-74
-222 -146 -488 -192 -702 -33 -156 -33 -158 -45 -120 -122 398 -204 609 -343
890 -444 899 -1116 1628 -1980 2148 -1032 620 -2270 852 -3481 650 -807 -134
-1563 -459 -2230 -958 -182 -136 -336 -271 -530 -466 -267 -266 -445 -482
-649 -787 l-81 -123 179 0 180 0 23 33 c310 428 600 735 986 1045 145 116 444
316 617 413 1007 563 2194 748 3325 518 1325 -269 2478 -1086 3185 -2259 100
-165 271 -510 338 -680 171 -433 271 -844 324 -1320 24 -219 24 -734 -1 -955
-99 -903 -417 -1713 -949 -2419 -368 -488 -844 -918 -1362 -1231 -621 -375
-1280 -595 -2030 -677 -187 -20 -800 -17 -990 5 -981 116 -1833 480 -2580
1102 -261 217 -594 575 -793 852 l-87 122 -177 0 c-98 1 -178 -2 -178 -5 0
-10 89 -144 176 -265 710 -990 1752 -1696 2929 -1984 228 -55 471 -97 730
-126 159 -17 670 -23 856 -10 1580 112 2988 921 3891 2236 369 538 649 1199
782 1846 69 336 94 590 106 1074 12 468 31 704 86 1040 323 1977 1511 3704
3245 4717 846 495 1767 792 2769 894 210 21 804 30 1030 15 741 -49 1433 -205
2100 -473 1260 -507 2338 -1387 3085 -2518 178 -270 409 -687 511 -922 l29
-67 163 -1 c94 0 162 4 162 9 0 18 -124 286 -210 456 -488 958 -1172 1774
-2025 2418 -1012 764 -2208 1234 -3485 1372 -498 53 -1164 45 -1650 -20 -1242
-167 -2394 -647 -3386 -1411 -603 -464 -1131 -1030 -1557 -1670 l-100 -151
-111 166 c-585 873 -1336 1586 -2241 2128 -900 539 -1875 858 -2965 969 -183
18 -905 27 -1100 13z"/>
<path d="M28280 15154 c-19 -2 -93 -9 -165 -15 -180 -14 -447 -53 -654 -94
-1007 -202 -1921 -643 -2731 -1318 -187 -156 -572 -541 -727 -727 -682 -820
-1128 -1754 -1327 -2775 -68 -353 -94 -619 -106 -1102 -14 -533 -39 -801 -111
-1173 -67 -347 -197 -777 -334 -1105 -696 -1676 -2148 -2938 -3900 -3390 -299
-78 -625 -135 -950 -167 -204 -20 -858 -17 -1065 5 -473 51 -852 132 -1275
272 -281 92 -476 172 -745 306 -252 125 -407 213 -620 354 -766 507 -1386
1173 -1850 1988 l-72 127 -170 0 -170 0 63 -118 c457 -859 1089 -1584 1854
-2127 840 -596 1800 -966 2820 -1084 295 -35 499 -44 840 -38 319 6 490 19
760 58 1238 179 2391 736 3312 1600 1054 990 1736 2372 1877 3804 23 234 26
295 36 685 5 201 16 435 25 520 120 1174 574 2248 1338 3165 133 159 539 564
702 699 590 491 1231 845 1952 1079 511 166 1011 255 1560 276 1453 57 2854
-423 3963 -1357 160 -135 536 -511 672 -672 250 -296 523 -696 673 -982 l30
-58 168 0 c92 0 167 3 167 7 0 14 -137 265 -223 408 -270 451 -550 809 -927
1185 -489 490 -985 846 -1603 1151 -647 319 -1322 511 -2087 595 -136 15 -903
29 -1000 18z"/>
<path d="M28341 14189 c-1262 -65 -2452 -597 -3351 -1498 -672 -673 -1129
-1481 -1355 -2395 -94 -378 -132 -677 -145 -1141 -12 -443 -18 -546 -41 -775
-132 -1312 -663 -2579 -1503 -3590 -1285 -1545 -3180 -2439 -5176 -2440 -1327
-1 -2611 385 -3715 1115 -382 252 -677 496 -1031 849 -435 435 -755 848 -1049
1351 -88 151 -253 467 -314 603 l-33 72 -164 0 -164 0 14 -32 c135 -316 317
-667 499 -958 623 -1000 1467 -1811 2492 -2392 1713 -973 3790 -1176 5660
-553 1494 497 2752 1452 3633 2758 l119 176 109 -162 c794 -1186 1919 -2097
3242 -2625 1729 -692 3656 -668 5372 65 1492 638 2716 1779 3461 3228 83 162
229 474 229 490 0 3 -74 5 -165 5 -119 0 -165 -3 -165 -12 0 -22 -218 -453
-310 -613 -603 -1048 -1473 -1911 -2520 -2502 -1047 -590 -2216 -883 -3430
-860 -316 6 -530 23 -810 63 -1983 284 -3735 1434 -4793 3145 l-47 76 36 64
c48 85 200 390 254 511 l43 98 60 -113 c666 -1256 1778 -2254 3107 -2789 556
-224 1089 -351 1755 -420 194 -20 891 -17 1100 5 741 78 1383 253 2022 550
1078 502 2012 1346 2625 2375 74 125 228 406 228 417 0 3 -75 5 -167 5 l-168
-1 -85 -151 c-162 -289 -387 -611 -620 -888 -145 -172 -496 -524 -666 -667
-843 -708 -1841 -1155 -2919 -1308 -462 -65 -1023 -73 -1490 -20 -1006 115
-1985 503 -2805 1114 -422 314 -859 751 -1181 1181 -217 289 -435 650 -588
974 l-58 123 19 49 c65 168 215 712 248 902 7 39 16 72 19 72 3 0 21 -53 40
-118 227 -784 691 -1561 1291 -2162 318 -318 710 -617 1095 -836 602 -342
1281 -560 1990 -640 190 -21 707 -30 905 -15 671 51 1288 216 1875 500 527
256 960 565 1380 986 256 255 433 469 637 768 l89 132 -178 3 -178 3 -20 -27
c-237 -321 -363 -471 -560 -669 -538 -538 -1199 -942 -1917 -1174 -363 -117
-733 -189 -1143 -222 -185 -15 -696 -6 -875 15 -1122 135 -2101 606 -2885
1391 -721 721 -1187 1621 -1354 2620 -48 287 -56 393 -56 780 0 440 17 627 89
980 122 600 375 1203 718 1714 692 1033 1769 1769 2978 2035 342 75 654 108
1025 109 279 0 436 -10 683 -44 1299 -179 2483 -895 3247 -1963 l69 -96 179 0
179 0 -23 38 c-12 20 -52 80 -88 132 -346 506 -753 923 -1242 1275 -808 582
-1750 907 -2764 955 -233 11 -281 11 -504 -1z"/>
<path d="M31350 9560 l0 -1720 160 0 160 0 0 758 0 757 33 81 c49 121 121 229
217 325 261 263 593 354 849 234 128 -61 227 -188 276 -358 46 -159 47 -182
52 -1009 l4 -788 160 0 159 0 0 753 c0 743 -5 900 -35 1067 -71 388 -280 620
-605 671 -168 26 -391 -4 -561 -76 -180 -76 -381 -246 -490 -414 l-54 -84 -3
762 -2 761 -160 0 -160 0 0 -1720z"/>
<path d="M3059 10329 c-223 -32 -418 -120 -538 -240 -64 -63 -126 -164 -158
-255 -25 -73 -28 -91 -28 -229 0 -119 4 -161 18 -202 53 -152 193 -256 463
-343 54 -17 236 -67 404 -110 168 -43 338 -92 378 -108 158 -65 246 -139 278
-234 24 -74 16 -205 -18 -279 -66 -144 -225 -245 -438 -279 -96 -15 -284 -12
-391 6 -208 35 -449 145 -616 280 -23 19 -46 34 -51 34 -15 0 -144 -201 -138
-216 9 -24 161 -130 262 -181 310 -159 695 -218 1039 -158 319 56 555 231 643
477 21 60 26 96 30 205 5 157 -13 233 -78 331 -111 166 -324 262 -881 396
-306 74 -436 122 -518 192 -96 83 -116 273 -43 421 31 65 120 151 191 187 164
83 437 98 673 36 149 -39 275 -103 386 -197 29 -25 54 -44 56 -42 1 2 35 43
74 90 40 48 72 92 72 98 0 23 -169 143 -275 196 -127 63 -240 97 -388 119
-110 17 -313 19 -408 5z"/>
<path d="M8380 10325 c-252 -41 -470 -153 -651 -334 -136 -136 -225 -276 -288
-454 -184 -521 -42 -1098 357 -1449 160 -141 370 -241 582 -279 120 -21 355
-17 480 10 257 54 490 190 630 367 72 90 137 212 118 219 -7 2 -79 24 -159 48
l-146 44 -27 -54 c-99 -202 -405 -363 -688 -363 -140 0 -227 20 -353 79 -229
109 -409 319 -494 578 -77 233 -65 541 30 764 112 264 333 459 600 530 106 29
297 31 401 6 191 -47 348 -152 464 -309 25 -35 48 -65 49 -67 7 -6 305 92 305
101 0 4 -18 38 -41 76 -142 238 -382 407 -668 473 -114 27 -381 34 -501 14z"/>
<path d="M10955 10326 c-227 -38 -402 -117 -580 -260 -133 -107 -233 -236
-315 -408 -241 -507 -141 -1126 245 -1513 78 -78 220 -182 314 -230 73 -36
213 -83 308 -102 119 -23 356 -23 475 0 293 58 542 209 691 418 58 82 94 156
81 168 -10 10 -275 91 -297 91 -8 0 -18 -11 -21 -24 -10 -40 -91 -141 -158
-195 -83 -69 -240 -145 -353 -172 -77 -18 -110 -20 -225 -16 -96 4 -152 11
-195 25 -251 82 -437 245 -555 485 -91 185 -123 361 -108 582 41 584 549 985
1088 858 36 -8 111 -37 166 -64 80 -38 118 -64 180 -122 44 -41 95 -100 114
-130 19 -31 39 -56 44 -57 10 0 299 90 304 95 6 6 -30 68 -80 141 -143 208
-380 361 -651 420 -99 22 -368 27 -472 10z"/>
<path d="M13518 10324 c-371 -57 -710 -311 -887 -662 -48 -96 -99 -256 -117
-372 -20 -127 -14 -384 11 -500 110 -499 490 -885 959 -975 311 -60 663 3 907
159 115 75 196 144 261 225 53 66 118 176 118 199 0 8 -143 52 -250 77 -22 5
-28 0 -55 -52 -80 -154 -284 -297 -517 -360 -99 -28 -329 -25 -431 5 -292 84
-528 317 -632 622 -22 64 -29 99 -51 228 l-5 32 1057 0 1057 0 -6 168 c-6 179
-23 276 -72 412 -107 296 -332 553 -603 689 -209 105 -491 145 -744 105z m352
-245 c337 -54 624 -317 725 -664 13 -47 27 -115 31 -150 l7 -65 -903 0 -903 0
7 61 c25 216 125 426 273 571 86 86 120 111 213 158 172 87 367 119 550 89z"/>
<path d="M16040 10325 c-343 -56 -583 -231 -670 -488 -54 -161 -48 -355 15
-484 85 -172 248 -252 806 -393 414 -105 522 -147 615 -239 58 -56 85 -115 92
-196 17 -216 -120 -381 -378 -455 -56 -16 -113 -23 -225 -27 -169 -6 -287 9
-427 53 -141 45 -349 158 -467 255 l-35 28 -73 -110 -74 -109 28 -25 c53 -48
205 -145 286 -184 235 -112 539 -171 801 -157 549 30 875 301 876 728 0 171
-37 266 -144 374 -127 127 -300 197 -798 323 -385 97 -486 137 -561 220 -80
89 -89 267 -20 405 53 104 176 191 328 231 92 24 282 30 400 12 200 -31 392
-112 503 -212 33 -30 62 -55 65 -55 3 0 40 42 82 92 l77 93 -56 52 c-120 112
-325 211 -521 253 -131 28 -402 36 -525 15z"/>
<path d="M18345 10325 c-178 -28 -332 -89 -452 -178 -107 -80 -202 -222 -239
-357 -25 -93 -25 -295 0 -370 74 -222 238 -311 858 -466 393 -99 505 -144 600
-241 55 -56 76 -101 84 -181 18 -168 -73 -325 -236 -407 -132 -66 -198 -79
-420 -79 -178 1 -203 3 -292 27 -184 49 -365 138 -518 255 l-65 49 -72 -105
c-40 -58 -73 -108 -73 -112 0 -11 133 -108 219 -159 100 -61 251 -121 386
-154 478 -120 945 -40 1194 202 117 114 179 260 188 441 15 308 -132 482 -515
610 -66 22 -259 76 -428 119 -381 98 -453 124 -535 198 -70 63 -84 101 -84
229 0 107 1 112 38 186 44 90 104 149 199 196 88 43 172 61 313 68 286 14 565
-76 743 -240 49 -45 37 -52 136 69 l66 79 -38 39 c-93 97 -300 206 -476 251
-175 46 -411 58 -581 31z"/>
<path d="M26769 10329 c-223 -32 -418 -120 -538 -240 -64 -63 -126 -164 -158
-255 -25 -73 -28 -91 -28 -229 0 -119 4 -161 18 -202 53 -152 193 -256 463
-343 54 -17 236 -67 404 -110 168 -43 338 -92 378 -108 158 -65 246 -139 278
-234 24 -74 16 -205 -18 -279 -66 -144 -225 -245 -438 -279 -96 -15 -284 -12
-391 6 -208 35 -449 145 -616 280 -23 19 -46 34 -51 34 -15 0 -144 -201 -138
-216 9 -24 161 -130 262 -181 438 -225 1020 -242 1372 -41 147 85 257 212 310
360 21 60 26 96 30 205 5 157 -13 233 -78 331 -111 166 -324 262 -881 396
-306 74 -436 122 -518 192 -96 83 -116 273 -43 421 31 65 120 151 191 187 164
83 437 98 673 36 149 -39 275 -103 386 -197 29 -25 54 -44 56 -42 1 2 35 43
74 90 40 48 72 92 72 98 0 23 -169 143 -275 196 -127 63 -240 97 -388 119
-110 17 -313 19 -408 5z"/>
<path d="M29457 10324 c-250 -45 -502 -201 -667 -413 l-55 -70 -3 229 -2 230
-145 0 -145 0 0 -1735 0 -1735 160 0 160 0 0 757 0 756 50 -71 c187 -266 460
-436 755 -472 588 -71 1088 333 1217 985 31 155 30 397 0 542 -98 456 -388
811 -779 953 -159 57 -376 75 -546 44z m219 -275 c458 -63 804 -490 804 -989
0 -392 -211 -750 -533 -904 -117 -56 -207 -76 -344 -76 -118 0 -188 14 -293
57 -215 89 -412 277 -524 501 l-27 53 3 407 3 407 37 75 c93 189 298 357 530
434 132 45 216 53 344 35z"/>
<path d="M34976 10330 c-197 -31 -394 -115 -554 -235 -90 -67 -229 -221 -291
-319 -274 -440 -265 -1012 25 -1448 59 -88 196 -233 283 -298 79 -60 236 -143
333 -176 217 -73 481 -81 723 -19 294 74 561 269 680 497 20 38 35 71 33 73
-5 5 -271 76 -273 73 -1 -2 -18 -30 -38 -63 -96 -157 -261 -277 -472 -341 -81
-25 -105 -28 -245 -28 -181 -1 -235 11 -375 79 -116 57 -211 130 -289 220
-133 158 -219 352 -242 548 l-7 57 1051 0 1052 0 6 26 c10 38 -4 251 -22 346
-95 502 -455 886 -932 994 -81 18 -363 27 -446 14z m324 -250 c183 -29 358
-120 487 -251 159 -162 249 -349 278 -576 l7 -53 -907 0 -906 0 5 33 c21 126
29 163 47 219 85 264 261 462 502 566 146 63 330 86 487 62z"/>
<path d="M39285 10329 c-315 -46 -628 -236 -809 -491 -109 -155 -192 -360
-222 -551 -26 -161 -15 -397 24 -550 36 -137 114 -307 194 -424 114 -166 302
-324 490 -413 373 -174 865 -133 1212 103 80 54 200 169 251 242 43 60 85 136
85 153 0 7 -250 82 -274 82 -3 0 -6 -5 -6 -11 0 -22 -90 -146 -137 -190 -153
-143 -349 -224 -565 -236 -252 -14 -463 66 -651 246 -165 157 -268 368 -302
613 l-6 48 1053 2 1053 3 -1 150 c-1 217 -36 372 -129 557 -67 135 -130 224
-235 329 -185 187 -412 301 -675 339 -83 11 -266 11 -350 -1z m413 -269 c257
-73 449 -236 576 -487 43 -87 83 -220 92 -308 l7 -65 -902 0 -901 0 0 30 c0
43 28 174 52 245 105 307 349 529 658 596 114 25 311 20 418 -11z"/>
<path d="M37870 10295 c-259 -53 -495 -234 -648 -499 l-47 -80 -3 292 -2 292
-150 0 -150 0 0 -1230 0 -1230 160 0 160 0 0 760 0 760 25 65 c121 323 447
559 803 582 l82 6 0 148 0 149 -82 -1 c-46 0 -112 -7 -148 -14z"/>
<path d="M4700 9583 c0 -395 5 -785 10 -868 20 -316 86 -528 213 -685 322
-395 1125 -282 1497 212 l60 79 0 -240 0 -241 160 0 160 0 0 1230 0 1230 -160
0 -160 0 0 -784 0 -784 -51 -101 c-75 -150 -213 -312 -341 -399 -66 -45 -201
-108 -273 -128 -81 -22 -282 -30 -354 -14 -191 42 -332 195 -390 423 -39 149
-41 210 -41 1008 l0 779 -165 0 -165 0 0 -717z"/>
</g>
</svg>
